<svg width="16" height="16" viewBox="0 0 16 16" fill="none" xmlns="http://www.w3.org/2000/svg">
<path d="M6.10575 3.80815L5.83731 3.20417C5.66179 2.80925 5.57403 2.61179 5.44278 2.46067C5.2783 2.27129 5.06389 2.13196 4.82403 2.05857C4.63264 2 4.41655 2 3.98438 2C3.35218 2 3.03608 2 2.77073 2.12153C2.45816 2.26468 2.17587 2.57552 2.0634 2.9004C1.96792 3.17619 1.99527 3.45962 2.04996 4.02647C2.63218 10.0601 5.94012 13.3681 11.9737 13.9503C12.5406 14.005 12.8241 14.0323 13.0998 13.9369C13.4247 13.8244 13.7356 13.5421 13.8788 13.2295C14.0002 12.9641 14.0002 12.6481 14.0002 12.0159C14.0002 11.5837 14.0002 11.3676 13.9417 11.1762C13.8683 10.9363 13.7289 10.7219 13.5395 10.5575C13.3885 10.4262 13.191 10.3385 12.7961 10.1629L12.1921 9.89447C11.7644 9.7044 11.5505 9.6094 11.3333 9.58873C11.1253 9.56893 10.9156 9.59813 10.7209 9.67393C10.5175 9.75313 10.3378 9.90293 9.97822 10.2025C9.62035 10.5008 9.44142 10.6499 9.22275 10.7298C9.02888 10.8006 8.77262 10.8269 8.56848 10.7967C8.33815 10.7628 8.16182 10.6686 7.80908 10.4801C6.71175 9.89367 6.1066 9.28853 5.52016 8.19113C5.33167 7.83847 5.23743 7.66207 5.20349 7.4318C5.1734 7.2276 5.19963 6.97133 5.27044 6.77753C5.35032 6.55885 5.49945 6.37991 5.7977 6.022C6.09732 5.66245 6.24714 5.48268 6.32634 5.27927C6.40214 5.08463 6.43132 4.87493 6.41154 4.66699C6.39087 4.44968 6.29583 4.23584 6.10575 3.80815Z" stroke="#A1A1A1" stroke-width="1.3" stroke-linecap="round"/>
</svg>
